<svg width="40" height="40" viewBox="0 0 40 40" fill="none" xmlns="http://www.w3.org/2000/svg">
<path d="M35.3054 33.4179L29.6452 11.4549C29.5454 11.0678 29.3152 10.4636 29.1321 10.1083L27.5057 6.9519C27.2913 6.53609 26.7564 6.21027 26.2878 6.21027H9.37904C8.91009 6.21027 8.37596 6.53688 8.1632 6.95383L6.50176 10.2088C6.32015 10.5647 6.09125 11.1691 5.99158 11.556L0.361252 33.4179C0.298433 33.6617 0.342915 33.905 0.483204 34.0855C0.623493 34.266 0.848622 34.3695 1.10095 34.3695H2.36609C2.7158 34.3695 3.26968 34.5123 3.5757 34.6814L6.03913 36.0429C6.23443 36.1508 6.49027 36.2103 6.75935 36.2103C7.02843 36.2103 7.28427 36.1508 7.47957 36.0429L9.943 34.6814C10.0724 34.6099 10.2574 34.5688 10.4507 34.5688C10.644 34.5688 10.829 34.6099 10.9585 34.6814L13.4219 36.0429C13.6172 36.1508 13.873 36.2103 14.1421 36.2103C14.4112 36.2103 14.667 36.1508 14.8623 36.0429L17.3258 34.6814C17.4552 34.6099 17.6402 34.5688 17.8335 34.5688C18.0268 34.5688 18.2118 34.6099 18.3412 34.6814L20.8046 36.0429C20.9999 36.1508 21.2558 36.2103 21.5249 36.2103C21.7939 36.2103 22.0498 36.1508 22.2451 36.0429L24.7085 34.6814C24.8379 34.6099 25.0229 34.5688 25.2162 34.5688C25.4095 34.5688 25.5945 34.6099 25.724 34.6814L28.1874 36.0429C28.3827 36.1508 28.6385 36.2103 28.9076 36.2103C29.1767 36.2103 29.4325 36.1508 29.6278 36.0429L32.0913 34.6814C32.3972 34.5123 32.9512 34.3695 33.3009 34.3695H34.5661C34.8183 34.3695 35.0435 34.266 35.1838 34.0855C35.324 33.905 35.3683 33.6617 35.3054 33.4179Z" fill="white"/>
<path d="M28.6877 10.3373L29.1321 10.1083L28.6877 10.3374C28.8537 10.6595 29.0705 11.2287 29.161 11.5797L34.8213 33.5427C34.85 33.6543 34.8235 33.7342 34.789 33.7787C34.7541 33.8235 34.6823 33.8695 34.5661 33.8695H33.3009C33.0693 33.8695 32.7989 33.9149 32.5548 33.9778C32.3108 34.0408 32.0521 34.1317 31.8494 34.2438C31.8494 34.2438 31.8494 34.2438 31.8494 34.2438L29.386 35.6053C29.2786 35.6646 29.1095 35.7103 28.9076 35.7103C28.7057 35.7103 28.5366 35.6646 28.4292 35.6053L25.9658 34.2438L25.724 34.6814L25.9658 34.2438C25.7431 34.1207 25.469 34.0688 25.2162 34.0688C24.9635 34.0688 24.6893 34.1207 24.4667 34.2438L24.7085 34.6814L24.4666 34.2438L22.0032 35.6053C21.8958 35.6646 21.7267 35.7103 21.5249 35.7103C21.323 35.7103 21.1539 35.6646 21.0465 35.6053L18.5831 34.2438L18.3412 34.6814L18.5831 34.2438C18.3604 34.1207 18.0862 34.0688 17.8335 34.0688C17.5807 34.0688 17.3066 34.1207 17.0839 34.2438L17.3258 34.6814L17.0839 34.2438L14.6205 35.6053C14.5131 35.6646 14.344 35.7103 14.1421 35.7103C13.9402 35.7103 13.7711 35.6646 13.6637 35.6053L11.2003 34.2438L10.9585 34.6814L11.2003 34.2438C10.9776 34.1207 10.7035 34.0688 10.4507 34.0688C10.198 34.0688 9.92385 34.1207 9.70115 34.2438L9.943 34.6814L9.70114 34.2438L7.23772 35.6053C7.13031 35.6646 6.96122 35.7103 6.75935 35.7103C6.55748 35.7103 6.38839 35.6646 6.28099 35.6053L3.81756 34.2438L3.81746 34.2437C3.61477 34.1318 3.35619 34.0408 3.11214 33.9779C2.86809 33.9149 2.59772 33.8695 2.36609 33.8695H1.10095C0.984591 33.8695 0.912816 33.8235 0.877991 33.7787C0.843183 33.7339 0.816791 33.6539 0.845437 33.5427L0.845452 33.5426L6.47577 11.6808C6.47578 11.6808 6.47578 11.6808 6.47578 11.6807C6.5663 11.3294 6.78217 10.7594 6.94713 10.4361L8.60854 7.18114L8.60857 7.18109C8.66476 7.07098 8.77879 6.94833 8.93591 6.85225C9.09299 6.75619 9.25457 6.71027 9.37904 6.71027H26.2878C26.4124 6.71027 26.5743 6.75616 26.732 6.85219C26.8898 6.94825 27.0045 7.07089 27.0613 7.18099L28.6877 10.3373Z" stroke="#212121" stroke-opacity="0.6"/>
<path d="M8.66792 4.67452H26.0421C26.4104 4.67452 26.71 4.34283 26.71 3.93503V0.739483C26.71 0.331781 26.4104 0 26.0421 0H8.66792C8.29958 0 8 0.331781 8 0.739483V3.93503C8 4.34283 8.29967 4.67452 8.66792 4.67452ZM15.3067 1.44988C15.3067 1.12362 15.5464 0.858293 15.8411 0.858293H18.8689C19.1636 0.858293 19.4033 1.12362 19.4033 1.44988V3.22464C19.4033 3.5509 19.1636 3.81622 18.8689 3.81622H15.8411C15.5464 3.81622 15.3067 3.5509 15.3067 3.22464V1.44988Z" fill="white"/>
<path d="M26.0421 4.17452H19.3824C19.7062 3.97836 19.9033 3.60505 19.9033 3.22464V1.44988C19.9033 1.06947 19.7062 0.696156 19.3824 0.5H26.0421C26.0702 0.5 26.1067 0.511676 26.1431 0.551978C26.1802 0.593039 26.21 0.658156 26.21 0.739483V3.93503C26.21 4.01643 26.1802 4.08153 26.1431 4.12256C26.1067 4.16283 26.0702 4.17452 26.0421 4.17452ZM15.3276 4.17452H8.66792C8.63983 4.17452 8.60331 4.16284 8.5669 4.12254C8.52982 4.08149 8.5 4.01639 8.5 3.93503V0.739483C8.5 0.658157 8.52982 0.593039 8.5669 0.551978C8.6033 0.511676 8.63981 0.5 8.66792 0.5H15.3276C15.0038 0.696156 14.8067 1.06947 14.8067 1.44988V3.22464C14.8067 3.60505 15.0038 3.97836 15.3276 4.17452Z" stroke="#212121" stroke-opacity="0.6"/>
<path d="M18.6392 1.8443H16.0756V2.83027H18.6392V1.8443Z" fill="#56CCF2"/>
</svg>
