<svg width="47" height="55" viewBox="0 0 47 55" fill="none" xmlns="http://www.w3.org/2000/svg">
<path d="M36.8149 44.2162L28.8051 26.3957C28.3861 25.3962 28.2046 24.2833 28.2794 23.1735C28.3542 22.0636 28.6827 20.9978 29.2305 20.0876C30.4136 18.1204 30.3789 15.8801 30.3453 13.7136C30.3402 13.3837 30.3349 13.0436 30.334 12.7083L31.2351 7.85224C31.2584 7.72683 31.2574 7.5969 31.2322 7.472C31.2069 7.3471 31.1581 7.23041 31.0893 7.13049C31.0205 7.03057 30.9334 6.94996 30.8344 6.89458C30.7355 6.83921 30.6272 6.81047 30.5175 6.81049H27.0739C26.9044 6.8105 26.7401 6.87914 26.6088 7.00478C26.4776 7.13041 26.3876 7.30529 26.354 7.49976L25.7083 11.242L23.5006 13.7217L21.2834 11.2252L20.6462 7.50112C20.6129 7.30636 20.5229 7.13113 20.3916 7.00522C20.2603 6.87931 20.0958 6.8105 19.9261 6.81049H16.4825C16.3728 6.81047 16.2645 6.83921 16.1656 6.89458C16.0666 6.94996 15.9796 7.03057 15.9107 7.13049C15.8419 7.23041 15.7931 7.3471 15.7678 7.472C15.7426 7.5969 15.7416 7.72683 15.7649 7.85224L16.666 12.7083C16.6651 13.0436 16.6598 13.3837 16.6547 13.7136C16.6211 15.8801 16.5864 18.1204 17.7695 20.0876C18.3173 20.9978 18.6458 22.0636 18.7206 23.1735C18.7955 24.2833 18.6139 25.3962 18.1949 26.3957L10.1851 44.2162C10.136 44.3254 10.1076 44.4458 10.1018 44.569C10.096 44.6922 10.1129 44.8155 10.1515 44.9304C10.19 45.0452 10.2493 45.1491 10.3252 45.2347C10.4011 45.3204 10.4919 45.386 10.5914 45.4269L11.4573 45.7834C19.2534 48.9799 27.7466 48.9799 35.5427 45.7834L36.4087 45.4269C36.5082 45.386 36.599 45.3204 36.6749 45.2347C36.7508 45.1491 36.81 45.0452 36.8486 44.9304C36.8871 44.8155 36.9041 44.6922 36.8983 44.569C36.8925 44.4458 36.864 44.3254 36.8149 44.2162ZM19.4994 27.1854C19.5025 27.1787 19.5054 27.1719 19.5083 27.165C20.0461 25.8879 20.28 24.4648 20.1854 23.0453C20.0908 21.6258 19.6712 20.2623 18.9706 19.0982C18.0636 17.5901 18.0913 15.8081 18.1233 13.7447C18.1289 13.3771 18.1348 12.997 18.1348 12.6166C18.1348 12.5553 18.1292 12.4941 18.1181 12.4342L17.3935 8.52915H19.3242L19.8884 11.8265C19.9178 11.9983 19.9914 12.1555 20.0993 12.277L22.9908 15.5328C23.1275 15.6867 23.3099 15.7728 23.4996 15.7729C23.6893 15.7731 23.8717 15.6873 24.0086 15.5336L26.8912 12.2956C26.9992 12.1743 27.0729 12.0173 27.1025 11.8457L27.6748 8.52915H29.6066L28.882 12.4342C28.8708 12.4941 28.8652 12.5553 28.8652 12.6166C28.8652 12.997 28.8711 13.3771 28.8768 13.7447C28.9088 15.8081 28.9364 17.5901 28.0294 19.0982C27.3289 20.2623 26.9092 21.6258 26.8146 23.0453C26.72 24.4648 26.9539 25.8879 27.4917 27.165C27.4946 27.1718 27.4976 27.1786 27.5006 27.1854L33.7646 41.1217C27.0516 43.33 19.9484 43.33 13.2354 41.1217L19.4994 27.1854Z" fill="#212121" fill-opacity="0.6"/>
<path d="M23.5 19.8585C24.0316 19.8585 24.4625 19.3542 24.4625 18.7322C24.4625 18.1102 24.0316 17.6059 23.5 17.6059C22.9685 17.6059 22.5375 18.1102 22.5375 18.7322C22.5375 19.3542 22.9685 19.8585 23.5 19.8585Z" fill="#56CCF2"/>
<path d="M23.5 23.1027C24.0316 23.1027 24.4625 22.5984 24.4625 21.9763C24.4625 21.3543 24.0316 20.85 23.5 20.85C22.9685 20.85 22.5375 21.3543 22.5375 21.9763C22.5375 22.5984 22.9685 23.1027 23.5 23.1027Z" fill="#56CCF2"/>
</svg>
