<svg width="47" height="45" viewBox="0 0 47 45" fill="none" xmlns="http://www.w3.org/2000/svg">
<path d="M33.7812 0H13.2188C12.8132 0 12.4844 0.314824 12.4844 0.703125V44.2969C12.4844 44.6852 12.8132 45 13.2188 45H21.2969C21.6888 45.0004 22.0121 44.7061 22.0312 44.3313L23.4647 16.1719H23.5382L24.9688 44.3313C24.9879 44.7062 25.3112 45.0004 25.7031 45H33.7812C34.1868 45 34.5156 44.6852 34.5156 44.2969V0.703125C34.5156 0.314824 34.1868 0 33.7812 0ZM27.1719 1.40625H33.0469V2.8125H27.1719V1.40625ZM13.9531 1.40625H19.8281V2.8125H13.9531V1.40625ZM22.7656 14.7656C22.3737 14.7652 22.0504 15.0595 22.0312 15.4343L20.5978 43.5938H13.9531V4.21875H22.7656V14.7656ZM21.2969 2.8125V1.40625H25.7031V2.8125H21.2969ZM32.7671 43.6493L26.1232 43.5628L25.0885 15.3872C25.0744 15.0126 24.7559 14.7144 24.3644 14.7094L24.5112 4.1625L33.3237 4.27711L32.7671 43.6493Z" fill="#212121" fill-opacity="0.6"/>
<path d="M30.8438 35.1562C30.4382 35.1562 30.1094 35.4711 30.1094 35.8594V36.5625C30.1094 36.9508 30.4382 37.2656 30.8438 37.2656C31.2493 37.2656 31.5781 36.9508 31.5781 36.5625V35.8594C31.5781 35.4711 31.2493 35.1562 30.8438 35.1562Z" fill="#56CCF2"/>
<path d="M30.8438 37.9688C30.4382 37.9688 30.1094 38.2836 30.1094 38.6719V39.375C30.1094 39.7633 30.4382 40.0781 30.8438 40.0781C31.2493 40.0781 31.5781 39.7633 31.5781 39.375V38.6719C31.5781 38.2836 31.2493 37.9688 30.8438 37.9688Z" fill="#56CCF2"/>
<path d="M30.8438 40.7812C30.4382 40.7812 30.1094 41.0961 30.1094 41.4844V42.1875C30.1094 42.5758 30.4382 42.8906 30.8438 42.8906C31.2493 42.8906 31.5781 42.5758 31.5781 42.1875V41.4844C31.5781 41.0961 31.2493 40.7812 30.8438 40.7812Z" fill="#56CCF2"/>
</svg>
