<?xml version='1.0' encoding='iso-8859-1'?>
<!DOCTYPE svg PUBLIC '-//W3C//DTD SVG 1.1//EN' 'http://www.w3.org/Graphics/SVG/1.1/DTD/svg11.dtd'>
<svg version="1.1" xmlns="http://www.w3.org/2000/svg" viewBox="0 0 297 297" xmlns:xlink="http://www.w3.org/1999/xlink" enable-background="new 0 0 297 297">
  <path d="m296.891,171.486c-0.417-2.762-1.999-5.213-4.344-6.73l-64.117-41.486c-2.789-38.335-34.869-68.668-73.902-68.668-33.71,0-62.216,22.632-71.166,53.495l-18.465-18.465c-3.809-3.807-9.98-3.807-13.789,0-3.808,3.808-3.808,9.982 0,13.789l15.531,15.53h-24.723c-5.385,0-9.75,4.365-9.75,9.75 0,5.385 4.365,9.75 9.75,9.75h17.333l-55.1,38.568c-3.723,2.607-5.139,7.437-3.432,11.648 1.708,4.212 6.108,6.682 10.599,5.962 0.048-0.008 4.851-0.766 12.725-0.766 15.587,0 46.293,3.038 76.816,23.388 25.733,17.156 49.699,25.147 75.42,25.147 14.543,0 29.913-2.666 45.684-7.922 36.329-12.111 71.295-53.52 72.766-55.276 1.792-2.142 2.581-4.951 2.164-7.714zm-142.363-97.384c26.778,0 49.099,19.382 53.71,44.85h-107.421c4.612-25.468 26.933-44.85 53.711-44.85zm61.266,141.874c-13.973,4.658-26.899,6.923-39.518,6.923-21.99,0-41.914-6.746-64.604-21.872-25.976-17.317-52.087-23.638-71.059-25.73l52.637-36.845h122.747l56.312,36.436c-11.457,12.002-34.377,33.71-56.515,41.088z"/>
</svg>
