<svg width="47" height="45" viewBox="0 0 47 45" fill="none" xmlns="http://www.w3.org/2000/svg">
<g clip-path="url(#clip0_56_167)">
<path d="M40.4936 28.9207C41.3371 28.9207 42.0209 28.266 42.0209 27.4584C42.0209 26.6508 41.3371 25.9962 40.4936 25.9962C39.6501 25.9962 38.9663 26.6508 38.9663 27.4584C38.9663 28.266 39.6501 28.9207 40.4936 28.9207Z" fill="#56CCF2"/>
<path d="M46.9538 27.7634C46.962 27.7556 46.962 27.7321 46.9538 27.7087C46.8139 25.1166 46.3083 22.5546 45.4511 20.0923C44.8549 18.802 45.1407 13.9773 45.4511 11.2326C45.5007 10.8034 45.1775 10.4169 44.7292 10.3693C44.6977 10.366 44.6661 10.3644 44.6343 10.3646H33.2002L30.0069 8.34713C29.6288 8.11156 29.1229 8.214 28.8768 8.57595C28.836 8.63597 28.804 8.70107 28.7818 8.76939C25.4005 18.8411 11.8185 24.6042 10.4055 25.1907C1.42158 25.5739 0.0658227 29.4915 0.00865215 29.6636C-0.00288405 29.7387 -0.00288405 29.8152 0.00865215 29.8903V34.2303C0.00997932 34.5615 0.229269 34.856 0.555856 34.9653C4.04326 36.1774 8.77208 36.7795 14.5463 36.7795C19.4237 36.7514 24.2928 36.3908 29.1166 35.7004C31.9291 36.0361 34.76 36.2111 37.5942 36.2243C39.9091 36.2863 42.2239 36.1 44.4955 35.6691C44.5701 35.6501 44.6417 35.6212 44.7079 35.5831C46.7333 34.4336 47.158 31.0946 46.9538 27.7634ZM29.9579 10.2004L31.9507 11.4359C31.7383 11.866 31.4035 12.515 30.9379 13.3126L28.5858 12.9607C29.118 12.0765 29.5768 11.1535 29.9579 10.2004ZM30.0069 14.7671L29.672 15.2754L29.1901 14.6342L30.0069 14.7671ZM27.2873 14.8815L28.6918 16.6283L28.112 17.4102L25.8006 16.6752C26.3336 16.0721 26.8263 15.4768 27.2873 14.8815ZM27.0177 18.6769L26.3806 19.3807L25.9232 18.3094L27.0177 18.6769ZM25.9232 22.1723L26.0703 22.4929L25.7354 22.3444L25.9232 22.1723ZM24.1428 18.3485H24.151L25.1964 20.6084C24.837 20.9525 24.4613 21.2887 24.0775 21.6249L21.6273 20.538C22.4522 19.8577 23.3179 19.1305 24.1428 18.3485ZM22.7135 22.7432C22.3868 22.9934 22.0492 23.241 21.7008 23.486L21.3088 22.1332L22.7135 22.7432ZM19.5691 22.0081L19.5773 22.0003L20.2797 24.4166L19.5691 24.831L17.3477 23.4313C18.0582 23.0012 18.8096 22.5007 19.5691 22.0081ZM16.6371 24.8466L17.9439 25.6677C17.5192 25.871 17.0781 26.0665 16.6371 26.2464V24.8466ZM15.0037 24.7528V24.745V26.8798C14.5463 27.0283 14.0889 27.1769 13.6152 27.302H13.5581L12.0961 26.176C12.8557 25.8476 13.8276 25.3706 15.0037 24.7528ZM10.2748 26.7703V26.7625L11.9818 28.1075C10.7556 28.8217 9.83494 29.9305 9.38462 31.2353C6.42809 30.8365 3.82274 30.1406 2.45882 28.9833C3.52872 28.1309 5.76654 26.9892 10.2748 26.7703ZM43.981 34.1755V34.1677C41.8768 34.5314 39.7401 34.6938 37.6024 34.6525C34.79 34.6429 31.9808 34.4706 29.1901 34.1364C29.1143 34.1262 29.0373 34.1262 28.9615 34.1364C24.187 34.8276 19.3667 35.1882 14.5381 35.2155C10.1626 35.3272 5.79401 34.8132 1.57676 33.6907V30.3204C4.73747 32.7758 11.6878 33.2919 16.9393 33.2919C20.6472 33.2919 23.4731 33.0417 23.5793 33.0339C24.4062 32.9098 25.2244 32.7375 26.0294 32.5178C26.4993 32.3878 26.9765 32.2834 27.4587 32.205C30.0933 32.0259 32.738 32.0259 35.3727 32.205C37.5697 32.2988 39.6442 32.3848 41.294 32.3223C42.8237 32.2718 44.2707 31.6451 45.3204 30.5785C45.2142 32.2597 44.8222 33.6203 43.981 34.1755ZM41.245 30.774C39.6605 30.8365 37.6269 30.774 35.4626 30.6567C32.7437 30.4699 30.0142 30.4699 27.2953 30.6567C26.7439 30.7423 26.1985 30.8598 25.6619 31.0086C24.9185 31.211 24.163 31.3703 23.3996 31.4856C19.2952 31.8584 15.1632 31.8584 11.0589 31.4856C11.5149 30.4875 12.313 29.6682 13.3212 29.1631V29.1553L14.285 29.9373C14.285 29.9373 14.285 29.9373 14.285 29.9842C14.2832 30.7918 14.9657 31.4478 15.8092 31.4494C16.6526 31.4511 17.3379 30.7976 17.3395 29.99C17.3405 29.491 17.0758 29.026 16.6371 28.7564V27.9744C17.624 27.5964 18.5866 27.163 19.5201 26.6764L20.6881 27.4114C20.6881 27.4114 20.6881 27.4114 20.6881 27.4583C20.6841 28.2659 21.3645 28.9237 22.208 28.9275C23.0514 28.9314 23.7385 28.2799 23.7425 27.4722C23.7461 26.7465 23.1934 26.1281 22.4439 26.0194L22.1826 25.1201C22.9993 24.5962 23.7098 24.0488 24.404 23.4858L26.2988 24.3147C26.4142 25.1148 27.1851 25.6737 28.0207 25.5632C28.8563 25.4528 29.4401 24.7147 29.3247 23.9146C29.2266 23.2344 28.6473 22.7112 27.9323 22.6569L27.1156 20.9757C27.6954 20.3892 28.2263 19.7949 28.749 19.2163L30.7336 19.8497C30.888 20.6568 31.6966 21.1912 32.5396 21.0435C33.3826 20.8957 33.9408 20.1215 33.7864 19.3143C33.6321 18.5072 32.8235 17.9728 31.9805 18.1206C31.9786 18.1208 31.9769 18.1211 31.9751 18.1215L30.7581 16.6123C31.142 16.0571 31.4932 15.5332 31.7954 15.0484L34.8254 15.4628C35.1705 16.2045 36.0781 16.5379 36.8527 16.2077C37.6274 15.8774 37.9756 15.0083 37.6307 14.2666C37.2856 13.5249 36.378 13.1915 35.6033 13.5218C35.3992 13.6089 35.2173 13.7375 35.0704 13.8989L32.6611 13.5392C33.0531 12.8354 33.339 12.2646 33.4778 11.8892H43.744C43.5398 13.9771 43.156 18.927 43.9645 20.6942C44.7484 22.9705 45.2072 25.3379 45.3285 27.7319C44.7373 29.4449 43.1243 30.6464 41.245 30.774Z" fill="#212121" fill-opacity="0.6"/>
</g>
<defs>
<clipPath id="clip0_56_167">
<rect width="47" height="45" fill="white"/>
</clipPath>
</defs>
</svg>
