<svg width="47" height="48" viewBox="0 0 47 48" fill="none" xmlns="http://www.w3.org/2000/svg">
<path d="M46.7478 12.5409L37.0155 3.54702C36.9215 3.46012 36.8078 3.39875 36.685 3.36864L30.0059 1.7306C29.6805 1.65099 29.341 1.80353 29.1731 2.10174C29.1043 2.22365 27.4462 5.08775 23.4999 5.08775C19.5538 5.08775 17.8955 2.22365 17.8286 2.10486C17.6621 1.8028 17.322 1.65006 16.994 1.7306L10.315 3.36864C10.1921 3.39875 10.0785 3.46012 9.98438 3.54702L0.25207 12.5409C-0.0254823 12.7974 -0.0809725 13.2239 0.121279 13.5468L4.975 21.294C5.18069 21.6224 5.59004 21.7433 5.9335 21.5777L9.7323 19.7425V45.9278C9.7323 46.3594 10.0717 46.7093 10.4904 46.7093H36.5095C36.9283 46.7093 37.2676 46.3594 37.2676 45.9278V19.7424L41.0664 21.5776C41.4096 21.7433 41.8192 21.6223 42.0248 21.2939L46.8785 13.5467C47.0809 13.2239 47.0255 12.7974 46.7478 12.5409ZM41.1104 19.8727L36.8312 17.8055C36.5963 17.6921 36.3216 17.7103 36.1029 17.8537C35.8841 17.997 35.7514 18.2458 35.7514 18.5131V45.1462H11.2484V18.5132C11.2484 18.246 11.1158 17.9971 10.8971 17.8538C10.6782 17.7104 10.4034 17.6923 10.1686 17.8056L5.88943 19.8728L1.74596 13.2593L10.853 4.8432L16.8378 3.37552C17.5916 4.40433 19.6758 6.65077 23.4998 6.65077C27.324 6.65077 29.4081 4.40433 30.1619 3.37552L36.1467 4.8432L45.2538 13.2593L41.1104 19.8727Z" fill="#212121" fill-opacity="0.6"/>
<path d="M24.1564 10.6084C24.0209 10.3666 23.7708 10.2177 23.4999 10.2177C23.2291 10.2177 22.9789 10.3666 22.8434 10.6084L15.533 23.6611C15.3975 23.9029 15.3975 24.2009 15.533 24.4426C15.6684 24.6843 15.9186 24.8333 16.1895 24.8333H19.2217C19.6404 24.8333 19.9798 24.4834 19.9798 24.0519C19.9798 23.6203 19.6404 23.2704 19.2217 23.2704H17.5024L23.4999 12.562L29.4973 23.2704H22.254C21.8353 23.2704 21.4959 23.6203 21.4959 24.0519C21.4959 24.4834 21.8353 24.8333 22.254 24.8333H30.8103C31.0811 24.8333 31.3313 24.6843 31.4667 24.4426C31.6022 24.2009 31.6022 23.9029 31.4667 23.6611L24.1564 10.6084Z" fill="#56CCF2"/>
</svg>
