<svg width="100" height="100" viewBox="0 0 100 100" fill="none" xmlns="http://www.w3.org/2000/svg">
<path d="M52.9458 74.1375C56.3917 77.5833 59.5625 79.1667 62.5 79.1667C64.075 79.1667 65.3333 78.8875 67.6542 78.0167L69.2875 77.3833C73.6625 75.625 75.8708 75 79.1667 75C84.225 75 89.0792 77.2708 93.6917 81.5833L94.6125 82.4708L88.7208 88.3625C85.275 84.9167 82.1042 83.3333 79.1667 83.3333C77.5917 83.3333 76.3334 83.6125 74.0125 84.4833L72.3792 85.1167C68.0042 86.8708 65.7958 87.5 62.5 87.5C57.4417 87.5 52.5875 85.2292 47.975 80.9167L47.0542 80.0292L52.9458 74.1375V74.1375ZM37.5 12.5C37.5 15.8152 38.817 18.9946 41.1612 21.3388C43.5054 23.683 46.6848 25 50 25C53.3152 25 56.4946 23.683 58.8389 21.3388C61.1831 18.9946 62.5 15.8152 62.5 12.5H87.5C88.6051 12.5 89.6649 12.939 90.4463 13.7204C91.2277 14.5018 91.6667 15.5616 91.6667 16.6667V45.8333C91.6667 46.9384 91.2277 47.9982 90.4463 48.7796C89.6649 49.561 88.6051 50 87.5 50H70.825V41.6667L83.3333 41.6625V20.8292H69.0958L69.025 21C67.4449 24.5327 64.9124 27.5557 61.7111 29.7303C58.5099 31.905 54.7664 33.1453 50.9 33.3125L50 33.3333C45.9767 33.3337 42.0393 32.1693 38.6633 29.9807C35.2872 27.7921 32.617 24.673 30.975 21L30.9 20.8333H16.6667V41.6667L29.1625 41.6625V79.1667H41.6667V87.5H25C23.8949 87.5 22.8351 87.061 22.0537 86.2796C21.2723 85.4982 20.8333 84.4384 20.8333 83.3333L20.8292 49.9958L12.5 50C11.3949 50 10.3351 49.561 9.55373 48.7796C8.77233 47.9982 8.33334 46.9384 8.33334 45.8333V16.6667C8.33334 15.5616 8.77233 14.5018 9.55373 13.7204C10.3351 12.939 11.3949 12.5 12.5 12.5H37.5ZM52.9458 57.4708C56.3917 60.9167 59.5625 62.5 62.5 62.5C64.075 62.5 65.3333 62.2208 67.6542 61.35L69.2875 60.7167C73.6625 58.9583 75.8708 58.3333 79.1667 58.3333C84.225 58.3333 89.0792 60.6042 93.6917 64.9167L94.6125 65.8042L88.7208 71.6958C85.275 68.25 82.1042 66.6667 79.1667 66.6667C77.5917 66.6667 76.3334 66.9458 74.0125 67.8167L72.3792 68.45C68.0042 70.2042 65.7958 70.8333 62.5 70.8333C57.4417 70.8333 52.5875 68.5625 47.975 64.25L47.0542 63.3625L52.9458 57.4708V57.4708Z" fill="white"/>
</svg>
